<?xml version="1.0" encoding="utf-8"?>
<!-- Generator: Adobe Illustrator 23.0.3, SVG Export Plug-In . SVG Version: 6.00 Build 0)  -->
<svg version="1.1" id="Final" xmlns="http://www.w3.org/2000/svg" xmlns:xlink="http://www.w3.org/1999/xlink" x="0px" y="0px"
	 viewBox="0 0 1920 1080" style="enable-background:new 0 0 1920 1080;" xml:space="preserve">
	<style type="text/css">
		.st0{fill:#F2F1F0;}
		.st1{fill:#C0ECAE;}
		.st2{fill:#AADAFF;}
		.st3{fill:none;stroke:#FFFFFF;stroke-width:4;stroke-miterlimit:10;}
		.st4{fill:none;stroke:#FFFFFF;stroke-width:2;stroke-miterlimit:10;}
		.st5{fill:#FFFFFF;}
		.st6{fill:none;stroke:#FCE797;stroke-width:5;stroke-miterlimit:10;}
		.st7{fill:none;stroke:#FCE797;stroke-width:7;stroke-miterlimit:10;}
		.st8{fill:none;stroke:#FCE797;stroke-width:3;stroke-miterlimit:10;}
		.st9{fill:none;stroke:#CCCCCC;stroke-width:0.5;stroke-miterlimit:10;}
		.st10{fill:#E0E0E0;}
		.st11{enable-background:new    ;}
		.st12{fill:#3878C7;}
		.st13{fill:#DB6060;}
		.st14{fill:none;stroke:#FFFFFF;stroke-width:4;stroke-miterlimit:10;}
		.st15{display:inline;fill:none;stroke:#FF0000;stroke-width:0.25;stroke-miterlimit:10;}
		.st16{display:inline;fill:none;stroke:#ED1C24;stroke-width:0.25;stroke-miterlimit:10;}
		.st17{display:inline;}
	</style>
	<g id="Zones">
		<polygon points="963.100 521.600 1081.000 505.000 1370.000 567.000 1697.000 594.000 1920.500 609.500 1919.500 1079.500 915.500 1080.500 938.000 871.000 973.000 768.000 987.000 648.000 973.000 587.000 963.100 521.600" style="st14"/>
		<polygon points="963.100 521.600 916.000 527.000 719.000 513.000 340.500 498.500 0.500 459.500 0.000 1080.000 915.500 1080.500 938.000 871.000 973.000 768.000 987.000 648.000 973.000 587.000 963.100 521.600" style="st14"/>
		<polygon points="963.100 521.600 1081.000 505.000 1370.000 567.000 1697.000 594.000 1920.500 609.500 1920.000 0.000 1034.500 0.500 1037.500 85.500 1003.000 196.000 973.000 354.000 960.000 499.000 963.100 521.600" style="st14"/>
		<polygon points="963.100 521.600 960.000 499.000 973.000 354.000 1003.000 196.000 1037.500 85.500 1034.500 0.500 0.000 0.000 0.500 459.500 340.500 498.500 719.000 513.000 916.000 527.000 963.100 521.600" style="st14"/>
	</g>
</svg>
